{
  "accessors": [
    {
      "bufferView": 2,
      "componentType": 5126,
      "count": 1184,
      "max": [
        3.194593906402588,
        -1.0197060108184814,
        0.3403860032558441
      ],
      "min": [
        1.1559950113296509,
        -1.8833760023117065,
        -0.5252580046653748
      ],
      "type": "VEC3"
    },
    {
      "bufferView": 2,
      "byteOffset": 14208,
      "componentType": 5126,
      "count": 1184,
      "max": [
        1.0,
        0.9993414878845215,
        0.9986744523048401
      ],
      "min": [
        -1.0,
        -0.9987690448760986,
        -0.9986744523048401
      ],
      "type": "VEC3"
    },
    {
      "bufferView": 1,
      "componentType": 5126,
      "count": 1184,
      "max": [
        1.0,
        1.0
      ],
      "min": [
        0.0,
        0.0
      ],
      "type": "VEC2"
    },
    {
      "bufferView": 0,
      "componentType": 5125,
      "count": 6144,
      "type": "SCALAR"
    },
    {
      "bufferView": 2,
      "byteOffset": 28416,
      "componentType": 5126,
      "count": 198,
      "max": [
        2.989022970199585,
        -1.804479956626892,
        0.054225001484155655
      ],
      "min": [
        1.4208929538726807,
        -1.8639880418777466,
        -0.2682960033416748
      ],
      "type": "VEC3"
    },
    {
      "bufferView": 2,
      "byteOffset": 30792,
      "componentType": 5126,
      "count": 198,
      "max": [
        0.5310895442962646,
        -0.8432062864303589,
        0.33989840745925903
      ],
      "min": [
        -0.3878916800022125,
        -0.9996615052223206,
        -0.4348296523094177
      ],
      "type": "VEC3"
    },
    {
      "bufferView": 1,
      "byteOffset": 9472,
      "componentType": 5126,
      "count": 198,
      "max": [
        1.0,
        0.125
      ],
      "min": [
        0.0,
        0.0625
      ],
      "type": "VEC2"
    },
    {
      "bufferView": 0,
      "byteOffset": 24576,
      "componentType": 5125,
      "count": 768,
      "type": "SCALAR"
    },
    {
      "bufferView": 2,
      "byteOffset": 33168,
      "componentType": 5126,
      "count": 220,
      "max": [
        2.7603859901428223,
        -0.5895329713821411,
        -1.3246519565582275
      ],
      "min": [
        1.6059789657592773,
        -2.281203031539917,
        -1.729485034942627
      ],
      "type": "VEC3"
    },
    {
      "bufferView": 2,
      "byteOffset": 35808,
      "componentType": 5126,
      "count": 220,
      "max": [
        0.7191066145896912,
        0.6578060388565063,
        0.9983571171760559
      ],
      "min": [
        -0.7191066145896912,
        -0.9990358352661133,
        -0.9925174117088318
      ],
      "type": "VEC3"
    },
    {
      "bufferView": 1,
      "byteOffset": 11056,
      "componentType": 5126,
      "count": 220,
      "max": [
        0.49520599842071533,
        0.0
      ],
      "min": [
        0.49520599842071533,
        0.0
      ],
      "type": "VEC2"
    },
    {
      "bufferView": 0,
      "byteOffset": 27648,
      "componentType": 5125,
      "count": 1056,
      "type": "SCALAR"
    },
    {
      "bufferView": 2,
      "byteOffset": 38448,
      "componentType": 5126,
      "count": 988,
      "max": [
        3.1886401176452637,
        -1.0256609916687012,
        0.3344370126724243
      ],
      "min": [
        1.1604150533676147,
        -1.858814001083374,
        -0.5083510279655457
      ],
      "type": "VEC3"
    },
    {
      "bufferView": 2,
      "byteOffset": 50304,
      "componentType": 5126,
      "count": 988,
      "max": [
        1.0,
        0.9993414878845215,
        0.9986744523048401
      ],
      "min": [
        -1.0,
        -0.9737342000007629,
        -0.9986744523048401
      ],
      "type": "VEC3"
    },
    {
      "bufferView": 1,
      "byteOffset": 12816,
      "componentType": 5126,
      "count": 988,
      "max": [
        1.0,
        1.0
      ],
      "min": [
        0.0,
        0.125
      ],
      "type": "VEC2"
    },
    {
      "bufferView": 0,
      "byteOffset": 31872,
      "componentType": 5125,
      "count": 5184,
      "type": "SCALAR"
    },
    {
      "bufferView": 2,
      "byteOffset": 62160,
      "componentType": 5126,
      "count": 3051,
      "max": [
        5.445849895477295,
        2.2716119289398193,
        1.9671989679336548
      ],
      "min": [
        -1.1973249912261963,
        -2.6048429012298584,
        -5.324441909790039
      ],
      "type": "VEC3"
    },
    {
      "bufferView": 2,
      "byteOffset": 98772,
      "componentType": 5126,
      "count": 3051,
      "max": [
        0.9996704459190369,
        0.9986627697944641,
        0.9998164772987366
      ],
      "min": [
        -0.9996704459190369,
        -0.9998590350151062,
        -0.9999990463256836
      ],
      "type": "VEC3"
    },
    {
      "bufferView": 1,
      "byteOffset": 20720,
      "componentType": 5126,
      "count": 3051,
      "max": [
        1.0000020265579224,
        1.0
      ],
      "min": [
        0.0,
        0.0
      ],
      "type": "VEC2"
    },
    {
      "bufferView": 0,
      "byteOffset": 52608,
      "componentType": 5125,
      "count": 17484,
      "type": "SCALAR"
    },
    {
      "bufferView": 2,
      "byteOffset": 135384,
      "componentType": 5126,
      "count": 130,
      "max": [
        2.8929951190948486,
        -1.8376630544662476,
        -0.04810300096869469
      ],
      "min": [
        1.524049997329712,
        -1.8579380512237549,
        -0.16844899952411652
      ],
      "type": "VEC3"
    },
    {
      "bufferView": 2,
      "byteOffset": 136944,
      "componentType": 5126,
      "count": 130,
      "max": [
        0.1722995489835739,
        -0.9836308360099792,
        -0.03859935328364372
      ],
      "min": [
        -0.0008999938727356493,
        -0.9987290501594543,
        -0.06370081007480621
      ],
      "type": "VEC3"
    },
    {
      "bufferView": 1,
      "byteOffset": 45128,
      "componentType": 5126,
      "count": 130,
      "max": [
        1.0,
        0.0625
      ],
      "min": [
        0.0,
        0.0
      ],
      "type": "VEC2"
    },
    {
      "bufferView": 0,
      "byteOffset": 122544,
      "componentType": 5125,
      "count": 192,
      "type": "SCALAR"
    },
    {
      "bufferView": 2,
      "byteOffset": 138504,
      "componentType": 5126,
      "count": 1012,
      "max": [
        5.54998779296875,
        2.3868629932403564,
        -2.588031053543091
      ],
      "min": [
        -1.3012759685516357,
        -0.4680590033531189,
        -5.432826995849609
      ],
      "type": "VEC3"
    },
    {
      "bufferView": 2,
      "byteOffset": 150648,
      "componentType": 5126,
      "count": 1012,
      "max": [
        0.9919138550758362,
        0.9999454021453857,
        0.9848779439926147
      ],
      "min": [
        -0.9934093356132507,
        -0.9999357461929321,
        -0.9788489937782288
      ],
      "type": "VEC3"
    },
    {
      "bufferView": 1,
      "byteOffset": 46168,
      "componentType": 5126,
      "count": 1012,
      "max": [
        0.0,
        0.0
      ],
      "min": [
        0.0,
        0.0
      ],
      "type": "VEC2"
    },
    {
      "bufferView": 0,
      "byteOffset": 123312,
      "componentType": 5125,
      "count": 6060,
      "type": "SCALAR"
    },
    {
      "bufferView": 2,
      "byteOffset": 162792,
      "componentType": 5126,
      "count": 9216,
      "max": [
        3.8080849647521973,
        -0.12621499598026276,
        -1.172652006149292
      ],
      "min": [
        0.5582799911499023,
        -0.6023600101470947,
        -1.5489219427108765
      ],
      "type": "VEC3"
    },
    {
      "bufferView": 2,
      "byteOffset": 273384,
      "componentType": 5126,
      "count": 9216,
      "max": [
        0.999072253704071,
        0.9994180202484131,
        0.9799272418022156
      ],
      "min": [
        -0.999072253704071,
        -0.9994180202484131,
        -0.9799272418022156
      ],
      "type": "VEC3"
    },
    {
      "bufferView": 1,
      "byteOffset": 54264,
      "componentType": 5126,
      "count": 9216,
      "max": [
        1.0,
        1.0
      ],
      "min": [
        0.0,
        0.0
      ],
      "type": "VEC2"
    },
    {
      "bufferView": 0,
      "byteOffset": 147552,
      "componentType": 5125,
      "count": 13824,
      "type": "SCALAR"
    },
    {
      "bufferView": 2,
      "byteOffset": 383976,
      "componentType": 5126,
      "count": 2304,
      "max": [
        3.819869041442871,
        0.0550989992916584,
        -1.0190759897232056
      ],
      "min": [
        3.5988121032714844,
        -0.1186169981956482,
        -1.208996057510376
      ],
      "type": "VEC3"
    },
    {
      "bufferView": 2,
      "byteOffset": 411624,
      "componentType": 5126,
      "count": 2304,
      "max": [
        0.9935501217842102,
        0.9994805455207825,
        0.9927843809127808
      ],
      "min": [
        -0.9935501217842102,
        -0.9994805455207825,
        -0.9927843809127808
      ],
      "type": "VEC3"
    },
    {
      "bufferView": 1,
      "byteOffset": 127992,
      "componentType": 5126,
      "count": 2304,
      "max": [
        1.0,
        1.0
      ],
      "min": [
        0.0,
        0.0
      ],
      "type": "VEC2"
    },
    {
      "bufferView": 0,
      "byteOffset": 202848,
      "componentType": 5125,
      "count": 3456,
      "type": "SCALAR"
    },
    {
      "bufferView": 2,
      "byteOffset": 439272,
      "componentType": 5126,
      "count": 46257,
      "max": [
        4.327692031860352,
        2.331346035003662,
        2.3612279891967773
      ],
      "min": [
        0.20886099338531494,
        -2.1269729137420654,
        -2.7683839797973633
      ],
      "type": "VEC3"
    },
    {
      "bufferView": 2,
      "byteOffset": 994356,
      "componentType": 5126,
      "count": 46257,
      "max": [
        0.9999934434890747,
        0.9999066591262817,
        0.9999668598175049
      ],
      "min": [
        -0.9999966621398926,
        -0.999951958656311,
        -0.9999707937240601
      ],
      "type": "VEC3"
    },
    {
      "bufferView": 1,
      "byteOffset": 146424,
      "componentType": 5126,
      "count": 46257,
      "max": [
        1.0,
        1.0
      ],
      "min": [
        0.0,
        0.0
      ],
      "type": "VEC2"
    },
    {
      "bufferView": 0,
      "byteOffset": 216672,
      "componentType": 5125,
      "count": 264150,
      "type": "SCALAR"
    },
    {
      "bufferView": 2,
      "byteOffset": 1549440,
      "componentType": 5126,
      "count": 740,
      "max": [
        3.4103620052337646,
        -1.4004759788513184,
        0.4599049985408783
      ],
      "min": [
        0.9560030102729797,
        -1.9380149841308594,
        -0.15924400091171265
      ],
      "type": "VEC3"
    },
    {
      "bufferView": 2,
      "byteOffset": 1558320,
      "componentType": 5126,
      "count": 740,
      "max": [
        0.9854641556739807,
        0.9856410026550293,
        0.9397620558738708
      ],
      "min": [
        -0.9854641556739807,
        -0.9883592128753662,
        -0.9494521617889404
      ],
      "type": "VEC3"
    },
    {
      "bufferView": 1,
      "byteOffset": 516480,
      "componentType": 5126,
      "count": 740,
      "max": [
        1.0000020265579224,
        1.0
      ],
      "min": [
        0.0,
        0.412324994802475
      ],
      "type": "VEC2"
    },
    {
      "bufferView": 0,
      "byteOffset": 1273272,
      "componentType": 5125,
      "count": 1680,
      "type": "SCALAR"
    }
  ],
  "asset": {
    "extras": {
      "author": "cecil.brews (https://sketchfab.com/cecil.brews)",
      "license": "CC-BY-4.0 (http://creativecommons.org/licenses/by/4.0/)",
      "source": "https://sketchfab.com/3d-models/stylized-self-portrait-9cdcb52eaa054a12a4922823c2f50a38",
      "title": "Stylized self portrait"
    },
    "generator": "Sketchfab-10.59.0",
    "version": "2.0"
  },
  "bufferViews": [
    {
      "buffer": 0,
      "byteLength": 1279992,
      "name": "floatBufferViews",
      "target": 34963
    },
    {
      "buffer": 0,
      "byteLength": 522400,
      "byteOffset": 1279992,
      "byteStride": 8,
      "name": "floatBufferViews",
      "target": 34962
    },
    {
      "buffer": 0,
      "byteLength": 1567200,
      "byteOffset": 1802392,
      "byteStride": 12,
      "name": "floatBufferViews",
      "target": 34962
    }
  ],
  "buffers": [
    {
      "byteLength": 3369592,
      "uri": "scene.bin"
    }
  ],
  "materials": [
    {
      "alphaMode": "BLEND",
      "doubleSided": true,
      "name": "Basic_Glass",
      "pbrMetallicRoughness": {
        "baseColorFactor": [
          0.8,
          0.8,
          0.8,
          0.0
        ],
        "roughnessFactor": 0.0
      }
    },
    {
      "doubleSided": true,
      "name": "aros",
      "pbrMetallicRoughness": {
        "baseColorFactor": [
          0.8,
          0.8,
          0.8,
          1.0
        ],
        "roughnessFactor": 0.29298986435133667
      }
    },
    {
      "doubleSided": true,
      "name": "iris",
      "pbrMetallicRoughness": {
        "baseColorFactor": [
          0.011088,
          0.000959000000000001,
          0.0005380000000000009,
          1.0
        ],
        "metallicFactor": 0.0321109145188455,
        "roughnessFactor": 0.0
      }
    },
    {
      "doubleSided": true,
      "name": "labios",
      "pbrMetallicRoughness": {
        "baseColorFactor": [
          0.626663,
          0.27959,
          0.178945,
          1.0
        ],
        "metallicFactor": 0.0,
        "roughnessFactor": 0.8063508326896291
      }
    },
    {
      "doubleSided": true,
      "name": "material",
      "pbrMetallicRoughness": {
        "baseColorFactor": [
          0.8,
          0.8,
          0.8,
          1.0
        ],
        "metallicFactor": 0.1841152436021378,
        "roughnessFactor": 0.0
      }
    },
    {
      "doubleSided": true,
      "name": "pelo",
      "pbrMetallicRoughness": {
        "baseColorFactor": [
          0.015961,
          0.003332,
          0.009619,
          1.0
        ],
        "metallicFactor": 0.0,
        "roughnessFactor": 0.8063508326896291
      }
    },
    {
      "doubleSided": true,
      "name": "piel",
      "pbrMetallicRoughness": {
        "baseColorFactor": [
          0.8,
          0.384183,
          0.248518,
          1.0
        ],
        "metallicFactor": 0.0
      }
    },
    {
      "doubleSided": true,
      "name": "pupila",
      "pbrMetallicRoughness": {
        "baseColorFactor": [
          0.0,
          0.0,
          0.0,
          1.0
        ],
        "metallicFactor": 0.0,
        "roughnessFactor": 0.7813042840513961
      }
    },
    {
      "doubleSided": true,
      "name": "remera",
      "pbrMetallicRoughness": {
        "baseColorFactor": [
          0.009018,
          0.009018,
          0.009018,
          1.0
        ],
        "metallicFactor": 0.0,
        "roughnessFactor": 0.9730730042065588
      }
    }
  ],
  "meshes": [
    {
      "name": "Object_0",
      "primitives": [
        {
          "attributes": {
            "NORMAL": 1,
            "POSITION": 0,
            "TEXCOORD_0": 2
          },
          "indices": 3,
          "material": 0,
          "mode": 4
        }
      ]
    },
    {
      "name": "Object_1",
      "primitives": [
        {
          "attributes": {
            "NORMAL": 5,
            "POSITION": 4,
            "TEXCOORD_0": 6
          },
          "indices": 7,
          "material": 2,
          "mode": 4
        }
      ]
    },
    {
      "name": "Object_2",
      "primitives": [
        {
          "attributes": {
            "NORMAL": 9,
            "POSITION": 8,
            "TEXCOORD_0": 10
          },
          "indices": 11,
          "material": 3,
          "mode": 4
        }
      ]
    },
    {
      "name": "Object_3",
      "primitives": [
        {
          "attributes": {
            "NORMAL": 13,
            "POSITION": 12,
            "TEXCOORD_0": 14
          },
          "indices": 15,
          "material": 4,
          "mode": 4
        }
      ]
    },
    {
      "name": "Object_4",
      "primitives": [
        {
          "attributes": {
            "NORMAL": 17,
            "POSITION": 16,
            "TEXCOORD_0": 18
          },
          "indices": 19,
          "material": 6,
          "mode": 4
        }
      ]
    },
    {
      "name": "Object_5",
      "primitives": [
        {
          "attributes": {
            "NORMAL": 21,
            "POSITION": 20,
            "TEXCOORD_0": 22
          },
          "indices": 23,
          "material": 7,
          "mode": 4
        }
      ]
    },
    {
      "name": "Object_6",
      "primitives": [
        {
          "attributes": {
            "NORMAL": 25,
            "POSITION": 24,
            "TEXCOORD_0": 26
          },
          "indices": 27,
          "material": 8,
          "mode": 4
        }
      ]
    },
    {
      "name": "Object_7",
      "primitives": [
        {
          "attributes": {
            "NORMAL": 29,
            "POSITION": 28,
            "TEXCOORD_0": 30
          },
          "indices": 31,
          "material": 1,
          "mode": 4
        }
      ]
    },
    {
      "name": "Object_8",
      "primitives": [
        {
          "attributes": {
            "NORMAL": 33,
            "POSITION": 32,
            "TEXCOORD_0": 34
          },
          "indices": 35,
          "material": 1,
          "mode": 4
        }
      ]
    },
    {
      "name": "Object_9",
      "primitives": [
        {
          "attributes": {
            "NORMAL": 37,
            "POSITION": 36,
            "TEXCOORD_0": 38
          },
          "indices": 39,
          "material": 5,
          "mode": 4
        }
      ]
    },
    {
      "name": "Object_10",
      "primitives": [
        {
          "attributes": {
            "NORMAL": 41,
            "POSITION": 40,
            "TEXCOORD_0": 42
          },
          "indices": 43,
          "material": 5,
          "mode": 4
        }
      ]
    }
  ],
  "nodes": [
    {
      "children": [
        1
      ],
      "matrix": [
        1.0,
        0.0,
        0.0,
        0.0,
        0.0,
        2.220446049250313e-16,
        -1.0,
        0.0,
        0.0,
        1.0,
        2.220446049250313e-16,
        0.0,
        0.0,
        0.0,
        0.0,
        1.0
      ],
      "name": "Sketchfab_model"
    },
    {
      "children": [
        2,
        3,
        4,
        5,
        6,
        7,
        8,
        9,
        10,
        11,
        12
      ],
      "name": "20210401_selfportrait_remesh.obj.cleaner.materialmerger.gles"
    },
    {
      "mesh": 0,
      "name": "Object_2"
    },
    {
      "mesh": 1,
      "name": "Object_3"
    },
    {
      "mesh": 2,
      "name": "Object_4"
    },
    {
      "mesh": 3,
      "name": "Object_5"
    },
    {
      "mesh": 4,
      "name": "Object_6"
    },
    {
      "mesh": 5,
      "name": "Object_7"
    },
    {
      "mesh": 6,
      "name": "Object_8"
    },
    {
      "mesh": 7,
      "name": "Object_9"
    },
    {
      "mesh": 8,
      "name": "Object_10"
    },
    {
      "mesh": 9,
      "name": "Object_11"
    },
    {
      "mesh": 10,
      "name": "Object_12"
    }
  ],
  "scene": 0,
  "scenes": [
    {
      "name": "Sketchfab_Scene",
      "nodes": [
        0
      ]
    }
  ]
}
